<mxfile host="app.diagrams.net" modified="2020-12-15T06:29:56.526Z" agent="5.0 (Windows NT 10.0; Win64; x64) AppleWebKit/537.36 (KHTML, like Gecko) Chrome/87.0.4280.88 Safari/537.36" etag="hnz1dS1kQRnwdirjF0Zy" version="14.0.1" type="github">
  <diagram id="jLeRlHcbZGFv7hPvxuyy" name="Page-1">
    <mxGraphModel dx="1422" dy="794" grid="1" gridSize="10" guides="1" tooltips="1" connect="1" arrows="1" fold="1" page="1" pageScale="1" pageWidth="1654" pageHeight="2336" math="0" shadow="0">
      <root>
        <mxCell id="0" />
        <mxCell id="1" parent="0" />
        <mxCell id="MST21hSJ7ybLwCSHI-1t-2" style="edgeStyle=orthogonalEdgeStyle;rounded=0;orthogonalLoop=1;jettySize=auto;html=1;entryX=0.5;entryY=0;entryDx=0;entryDy=0;" edge="1" parent="1" source="MST21hSJ7ybLwCSHI-1t-3" target="MST21hSJ7ybLwCSHI-1t-5">
          <mxGeometry relative="1" as="geometry" />
        </mxCell>
        <mxCell id="MST21hSJ7ybLwCSHI-1t-3" value="Bắt đầu" style="ellipse;whiteSpace=wrap;html=1;" vertex="1" parent="1">
          <mxGeometry x="340" y="50" width="100" height="50" as="geometry" />
        </mxCell>
        <mxCell id="MST21hSJ7ybLwCSHI-1t-4" style="edgeStyle=orthogonalEdgeStyle;rounded=0;orthogonalLoop=1;jettySize=auto;html=1;entryX=0.5;entryY=0;entryDx=0;entryDy=0;" edge="1" parent="1" source="MST21hSJ7ybLwCSHI-1t-5" target="MST21hSJ7ybLwCSHI-1t-8">
          <mxGeometry relative="1" as="geometry" />
        </mxCell>
        <mxCell id="MST21hSJ7ybLwCSHI-1t-5" value="Chọn ảnh C,&lt;br&gt;Private Key K" style="shape=parallelogram;perimeter=parallelogramPerimeter;whiteSpace=wrap;html=1;fixedSize=1;" vertex="1" parent="1">
          <mxGeometry x="330" y="120" width="120" height="60" as="geometry" />
        </mxCell>
        <mxCell id="MST21hSJ7ybLwCSHI-1t-6" style="edgeStyle=orthogonalEdgeStyle;rounded=0;orthogonalLoop=1;jettySize=auto;html=1;" edge="1" parent="1" source="MST21hSJ7ybLwCSHI-1t-8">
          <mxGeometry relative="1" as="geometry">
            <mxPoint x="210" y="240" as="targetPoint" />
          </mxGeometry>
        </mxCell>
        <mxCell id="MST21hSJ7ybLwCSHI-1t-7" style="edgeStyle=orthogonalEdgeStyle;rounded=0;orthogonalLoop=1;jettySize=auto;html=1;entryX=0.5;entryY=0;entryDx=0;entryDy=0;" edge="1" parent="1" source="MST21hSJ7ybLwCSHI-1t-8" target="MST21hSJ7ybLwCSHI-1t-14">
          <mxGeometry relative="1" as="geometry" />
        </mxCell>
        <mxCell id="MST21hSJ7ybLwCSHI-1t-8" value="&lt;br&gt;Kiểm tra các điều kiện C, M, K" style="rhombus;whiteSpace=wrap;html=1;" vertex="1" parent="1">
          <mxGeometry x="315" y="200" width="150" height="80" as="geometry" />
        </mxCell>
        <mxCell id="MST21hSJ7ybLwCSHI-1t-9" value="Kết thúc&lt;br&gt;" style="ellipse;whiteSpace=wrap;html=1;" vertex="1" parent="1">
          <mxGeometry x="410" y="610" width="100" height="50" as="geometry" />
        </mxCell>
        <mxCell id="MST21hSJ7ybLwCSHI-1t-10" value="" style="endArrow=classic;html=1;" edge="1" parent="1">
          <mxGeometry width="50" height="50" relative="1" as="geometry">
            <mxPoint x="210" y="240" as="sourcePoint" />
            <mxPoint x="210" y="640" as="targetPoint" />
          </mxGeometry>
        </mxCell>
        <mxCell id="MST21hSJ7ybLwCSHI-1t-11" value="" style="endArrow=classic;html=1;entryX=0;entryY=0.5;entryDx=0;entryDy=0;" edge="1" parent="1" target="MST21hSJ7ybLwCSHI-1t-9">
          <mxGeometry width="50" height="50" relative="1" as="geometry">
            <mxPoint x="210" y="635" as="sourcePoint" />
            <mxPoint x="440" y="440" as="targetPoint" />
          </mxGeometry>
        </mxCell>
        <mxCell id="MST21hSJ7ybLwCSHI-1t-12" value="False" style="text;html=1;align=center;verticalAlign=middle;resizable=0;points=[];autosize=1;" vertex="1" parent="1">
          <mxGeometry x="250" y="220" width="40" height="20" as="geometry" />
        </mxCell>
        <mxCell id="MST21hSJ7ybLwCSHI-1t-13" style="edgeStyle=orthogonalEdgeStyle;rounded=0;orthogonalLoop=1;jettySize=auto;html=1;" edge="1" parent="1" source="MST21hSJ7ybLwCSHI-1t-14" target="MST21hSJ7ybLwCSHI-1t-17">
          <mxGeometry relative="1" as="geometry" />
        </mxCell>
        <mxCell id="MST21hSJ7ybLwCSHI-1t-14" value="Tạo key AES A" style="shape=parallelogram;perimeter=parallelogramPerimeter;whiteSpace=wrap;html=1;fixedSize=1;" vertex="1" parent="1">
          <mxGeometry x="330" y="300" width="120" height="60" as="geometry" />
        </mxCell>
        <mxCell id="MST21hSJ7ybLwCSHI-1t-15" value="True" style="text;html=1;align=center;verticalAlign=middle;resizable=0;points=[];autosize=1;" vertex="1" parent="1">
          <mxGeometry x="390" y="280" width="40" height="20" as="geometry" />
        </mxCell>
        <mxCell id="MST21hSJ7ybLwCSHI-1t-16" style="edgeStyle=orthogonalEdgeStyle;rounded=0;orthogonalLoop=1;jettySize=auto;html=1;entryX=0.5;entryY=0;entryDx=0;entryDy=0;" edge="1" parent="1" source="MST21hSJ7ybLwCSHI-1t-17" target="MST21hSJ7ybLwCSHI-1t-19">
          <mxGeometry relative="1" as="geometry" />
        </mxCell>
        <mxCell id="MST21hSJ7ybLwCSHI-1t-17" value="M&#39; = Mã hóa RSA(A),&lt;br&gt;M&#39;&#39; = Mã hóa AES(M),&lt;br&gt;M = M&#39;+&#39;#&#39;+M&#39;&#39;" style="rounded=0;whiteSpace=wrap;html=1;" vertex="1" parent="1">
          <mxGeometry x="470" y="300" width="120" height="60" as="geometry" />
        </mxCell>
        <mxCell id="MST21hSJ7ybLwCSHI-1t-18" style="edgeStyle=orthogonalEdgeStyle;rounded=0;orthogonalLoop=1;jettySize=auto;html=1;" edge="1" parent="1" source="MST21hSJ7ybLwCSHI-1t-19">
          <mxGeometry relative="1" as="geometry">
            <mxPoint x="460" y="490" as="targetPoint" />
          </mxGeometry>
        </mxCell>
        <mxCell id="MST21hSJ7ybLwCSHI-1t-19" value="Giấu M vào C theo cơ chế LSB" style="rounded=0;whiteSpace=wrap;html=1;" vertex="1" parent="1">
          <mxGeometry x="330" y="400" width="260" height="60" as="geometry" />
        </mxCell>
        <mxCell id="MST21hSJ7ybLwCSHI-1t-20" style="edgeStyle=orthogonalEdgeStyle;rounded=0;orthogonalLoop=1;jettySize=auto;html=1;entryX=0.5;entryY=0;entryDx=0;entryDy=0;" edge="1" parent="1" source="MST21hSJ7ybLwCSHI-1t-21" target="MST21hSJ7ybLwCSHI-1t-9">
          <mxGeometry relative="1" as="geometry" />
        </mxCell>
        <mxCell id="MST21hSJ7ybLwCSHI-1t-21" value="Ảnh chứa tin mật C&#39;" style="shape=note;whiteSpace=wrap;html=1;backgroundOutline=1;darkOpacity=0.05;direction=south;" vertex="1" parent="1">
          <mxGeometry x="400" y="490" width="120" height="80" as="geometry" />
        </mxCell>
      </root>
    </mxGraphModel>
  </diagram>
</mxfile>
